<?xml version="1.0" standalone="no"?><!DOCTYPE svg PUBLIC "-//W3C//DTD SVG 1.1//EN" "http://www.w3.org/Graphics/SVG/1.1/DTD/svg11.dtd"><svg t="1572944601766" class="icon" viewBox="0 0 1024 1024" version="1.1" xmlns="http://www.w3.org/2000/svg" p-id="1667" xmlns:xlink="http://www.w3.org/1999/xlink" width="200" height="200"><defs><style type="text/css"></style></defs><path d="M532.156632 745.579789a26.138947 26.138947 0 0 1-20.156632 9.000422 26.138947 26.138947 0 0 1-20.156632-9.000422c-19.132632-18.054737-60.901053-31.258947-117.921684-38.426947C332.207158 701.925053 295.343158 700.631579 242.526316 700.631579a26.947368 26.947368 0 0 1-26.947369-26.947368v-377.263158a26.947368 26.947368 0 0 1 26.947369-26.947369c54.972632 0 93.561263 1.401263 138.078316 6.952421 56.212211 7.006316 100.783158 19.240421 131.395368 39.450948 30.612211-20.210526 75.183158-32.444632 131.395368-39.450948C687.912421 270.874947 726.501053 269.473684 781.473684 269.473684a26.947368 26.947368 0 0 1 26.947369 26.947369v377.263158a26.947368 26.947368 0 0 1-26.947369 26.947368c-52.816842 0-89.680842 1.293474-131.395368 6.521263-57.020632 7.114105-98.789053 20.372211-117.921684 38.426947zM538.947368 362.765474v316.092631c27.863579-11.964632 63.002947-19.994947 104.448-25.168842A934.858105 934.858105 0 0 1 754.526316 646.898526v-323.368421a884.951579 884.951579 0 0 0-104.448 6.359579c-50.984421 6.359579-89.788632 17.623579-111.130948 32.87579z m-53.894736 0c-21.342316-15.252211-60.146526-26.516211-111.130948-32.87579A884.951579 884.951579 0 0 0 269.473684 323.530105v323.368421c41.445053 0.431158 74.213053 2.155789 111.130948 6.790737 41.498947 5.173895 76.530526 13.204211 104.448 25.168842V362.711579zM512 1024a512 512 0 1 1 0-1024 512 512 0 0 1 0 1024z m0-53.894737a458.105263 458.105263 0 1 0 0-916.210526 458.105263 458.105263 0 0 0 0 916.210526z" fill="#d81e06" p-id="1668"></path></svg>